<svg  fill="#FFCC73" height="512" viewBox="0 0 50 60" width="512" xmlns="http://www.w3.org/2000/svg"><g id="046---Idea"><path id="Shape" d="m33 42.78c-.1400559-1.3734207.1058276-2.7586798.71-4 .4710186-.8964651 1.1374287-1.6756523 1.95-2.28 6.1744163-4.5381158 8.7988783-12.4877476 6.54-19.81l2.12-1.23c.4601633-.2638786.7966483-.699755.9354265-1.2117342s.0684808-1.058119-.1954265-1.5182658l-2-3.47c-.5529293-.95461131-1.7744087-1.28123402-2.73-.73l-2.14 1.24c-.31-.34-.63-.66-.95-1l1.23-2.14c.2639073-.46014677.3342047-1.00628657.1954265-1.51826579s-.4752632-.94785565-.9354265-1.21173421l-3.47-2c-.9559584-.54277661-2.170783-.21227283-2.72.74l-1.23 2.15c-.43-.13-.87-.25-1.31-.35v-2.44c0-1.1045695-.8954305-2-2-2h-4c-1.1045695 0-2 .8954305-2 2v2.46c-.4421893.0908753-.8794297.20435753-1.31.34l-1.23-2.12c-.2638786-.46016326-.699755-.79664825-1.2117342-.9354265s-1.058119-.06848082-1.5182658.1954265l-3.47 2.06c-.9509881.55634118-1.2729259 1.77702215-.72 2.73l1.23 2.07c-.34.30666667-.6733333.64-1 1l-2.1-1.27c-.46014677-.26390732-1.00628657-.33420475-1.51826579-.1954265s-.94785565.47526324-1.21173421.9354265l-2 3.47c-.54277661.9559584-.21227283 2.170783.74 2.72l2.11 1.23c-2.2387755 7.3263519.39101658 15.2678429 6.56 19.81 1.6468429 1.2065292 2.628812 3.1185898 2.65 5.16v1.12c-.6255427.5685734-.9821794 1.374672-.9821794 2.22s.3566367 1.6514266.9821794 2.22v4.78c0 3.07 1.71 3.78 3 4 0 2.209139 1.790861 4 4 4h2c1.0855741.0006651 2.1247955-.4399256 2.8790986-1.2206293.7543031-.7807038 1.1588967-1.8344616 1.1209014-2.9193707 1.7614029-.4547821 2.9940928-2.040843 3-3.86.0423389-.1639778.0423389-.3360222 0-.5.07-.27 0 .33 0-4.28.6255427-.5685734.9821794-1.374672.9821794-2.22s-.3566367-1.6514266-.9821794-2.22zm-15 2.22c0-.5522847.4477153-1 1-1h12c.5522847 0 1 .4477153 1 1s-.4477153 1-1 1h-12c-.5522847 0-1-.4477153-1-1zm-11.32-31.27 2-3.46 2.84 1.64c.4227683.2433504.9594265.1461603 1.27-.23.5769589-.6903668 1.2126714-1.3294251 1.9-1.91.3674644-.31206228.4599719-.84187741.22-1.26l-1.64-2.83 3.46-2 1.63 2.83c.2270614.4452746.7480237.65451353 1.22.49.8389404-.31106713 1.7064531-.53883108 2.59-.68.4850758-.08362738.8371559-.50782026.83-1v-3.32h4v3.26c-.0079763.48900373.3389075.91203267.82 1 .887725.16136015 1.7606695.3954832 2.61.7.4537659.16145023.9581523-.02349144 1.2-.44l1.64-2.82 3.46 2-1.64 2.82c-.2433504.42276833-.1461603.95942653.23 1.27.6871727.5771028 1.3228972 1.2128273 1.9 1.9.3120623.3674644.8418774.4599719 1.26.22l2.84-1.64 2 3.46-2.83 1.63c-.4262393.2435399-.6126696.7604602-.44 1.22.5416122 1.4158521.8620316 2.9066452.95 4.42h-2c-.6141922-7.2477404-6.676282-12.81784096-13.95-12.81784096s-13.3358078 5.57010056-13.95 12.81784096h-2.1c.09187829-1.5114203.394816-3.002547.9-4.43.1614502-.4537659-.02349144-.9581523-.44-1.2zm24.23 7.27c-.5028712-2.8705634-2.9957224-4.964674-5.91-4.964674s-5.4071288 2.0941106-5.91 4.964674h-2c.3316591-2.6450498 1.9590364-4.951126 4.34-6.15.3460386-.1440974.5824323-.4696151.6123817-.8432591s-.1515756-.73266-.4702434-.9300368c-.3186678-.1973769-.7209575-.1999648-1.0421383-.0067041-3.0654422 1.5252352-5.1288724 4.522122-5.46 7.93h-2c.4786959-6.2538818 5.6928244-11.0841534 11.965-11.0841534s11.4863041 4.8302716 11.965 11.0841534zm-2 0h-7.77c.4733978-1.7419603 2.0548597-2.9510005 3.86-2.9510005s3.3866022 1.2090402 3.86 2.9510005zm-13.38 13.89c-3.8268725-2.8035305-6.21746755-7.1563903-6.53-11.89h32c-.2782689 4.733913-2.6589027 9.0953516-6.49 11.89-1.0589817.7989293-1.9266672 1.8237546-2.54 3-.6697233 1.2644172-1.003712 2.6795652-.97 4.11h-12c.0857641-2.797035-1.21227-5.4566956-3.47-7.11zm10.47 23.11h-2c-1.1045695 0-2-.8954305-2-2h6c0 1.1045695-.8954305 2-2 2zm3-4h-8c-1.45 0-2-.17-2-2h12c0 1.1045695-.8954305 2-2 2zm2-4h-12v-2h12z"/><path id="Shape" d="m23.64 34c.46 1.07.36 3.54.36 5 0 .5522847.4477153 1 1 1s1-.4477153 1-1c0-1.53-.09-3.92.36-5 2.53.67 5.53.71 7.72-.74 3.4-2.26 3.92-7.36 3.92-7.57.0247539-.4454735-.2485931-.8534542-.67-1-.2-.07-5-1.73-8.41.53s-3.76 7.07-3.92 7.24v-.05c-.17-1.23-.94-5.3-3.87-7.23-3.41-2.25-8.22-.6-8.42-.53-.4174466.1500511-.6861489.5571758-.66 1 0 .21.51 5.35 3.92 7.59 2.14 1.49 5.14 1.45 7.67.76zm4.89-1.63 7-4.61c-1.17 3.7-3.35 5.06-7 4.63zm5.93-6.32-7 4.62c1.18-3.67 3.35-5.02 7-4.6zm-12 4.61-7-4.61c3.77-.41 5.9 1 7.04 4.63zm-8-2.9 7 4.61c-3.7.45-5.83-.96-6.97-4.59z"/><circle id="Oval" cx="25" cy="13" r="1"/><path id="Shape" d="m4 23c.55228475 0 1-.4477153 1-1s-.44771525-1-1-1h-3c-.55228475 0-1 .4477153-1 1s.44771525 1 1 1z"/><path id="Shape" d="m49 21h-3c-.5522847 0-1 .4477153-1 1s.4477153 1 1 1h3c.5522847 0 1-.4477153 1-1s-.4477153-1-1-1z"/><path id="Shape" d="m48.44 27.25-2.9-.78c-.3447613-.0964617-.7147956-.0016681-.9707145.2486731-.255919.2503412-.3588424.6181971-.27.965.0888423.3468029.3559532.6198652.7007145.7163269l2.89.78c.3493947.1071109.7293926.0151006.9910893-.2399762.2616968-.2550768.363411-.6325931.2652854-.9846169s-.3804623-.6224869-.7363747-.7054069z"/><path id="Shape" d="m5.68 27.18c-.14172169-.5322768-.68719551-.8497247-1.22-.71l-2.9.78c-.35726559.0464445-.66261475.27996-.8010254.6125833-.13841066.3326233-.08885494.7138212.13 1 .21885493.2861788.57375981.4338612.9310254.3874167 1.07941138-.2049619 2.1422803-.4890621 3.18-.85.5201625-.1547758.82193293-.6961874.68-1.22z"/><path id="Shape" d="m9.44 36.14-2.12 2.12c-.39212214.3921222-.39212212 1.0278778.00000004 1.42.39212215.3921221 1.02787778.3921221 1.41999996 0l2.12-2.12c.3921221-.3921222.3921221-1.0278778 0-1.42-.3921222-.3921221-1.02787782-.3921221-1.42 0z"/><path id="Shape" d="m40.56 36.14c-.2536586-.2536586-.623374-.3527235-.969878-.259878-.3465041.0928454-.6171546.3634959-.71.71-.0928455.346504.0062194.7162194.259878.969878 2.31 2.3 2.29 2.44 2.86 2.44.4062651.0023626.77358-.2413038.929371-.6165185.1557909-.3752147.0690889-.807391-.219371-1.0934815z"/><path id="Shape" d="m7.68 32c-.13195122-.2314397-.35079898-.4006596-.60799634-.4701217-.25719737-.069462-.53147992-.0334233-.76200366.1001217l-2.59 1.5c-.39621266.2245181-.5906881.688381-.47305464 1.1283301.11763345.4399491.51766172.7448538.97305464.7416699.35 0 .24 0 3.09-1.63.23143971-.1319512.40065959-.350799.47012165-.6079963.06946206-.2571974.03342336-.53148-.10012165-.7620037z"/><path id="Shape" d="m46.28 33.13-2.59-1.5c-.4804877-.2761424-1.0938576-.1104877-1.37.37-.2761423.4804877-.1104877 1.0938576.37 1.37l2.59 1.5c.3108211.1786328.6933311.1778753 1.0034422-.0019872.310111-.1798626.50071-.5115047.5-.8700001-.00071-.3584953-.1926211-.6893799-.5034422-.8680127z"/><path id="Shape" d="m15 39.32c-.2305237-.133545-.5048063-.1695837-.7620037-.1001217-.2571973.0694621-.4760451.238682-.6079963.4701217l-1.5 2.59c-.2761424.4804877-.1104877 1.0938576.37 1.37s1.0938576.1104877 1.37-.37l1.5-2.59c.133545-.2305237.1695837-.5048063.1001217-.7620037-.0694621-.2571973-.238682-.4760451-.4701217-.6079963z"/><path id="Shape" d="m36.37 39.69c-.1786328-.3108211-.5095174-.5027321-.8680127-.5034421s-.6901375.1898889-.87.5-.1806201.692621-.0019873 1.0034421l1.5 2.59c.2761424.4804877.8895123.6461423 1.37.37.4804877-.2761424.6461424-.8895123.37-1.37z"/></g></svg>