<svg height="512" viewBox="0 0 52 58" width="512" xmlns="http://www.w3.org/2000/svg"><path id="Shape" d="m2.62 18.52c3.83641443-3.1902056 8.5661278-5.1149265 13.54-5.51.7807001-.0502598 1.4980752.4293566 1.75 1.17v.01c-.0446582 1.074922-.7491852 2.0103109-1.77 2.35-5.5217193 1.5076746-10.60518735 4.3082096-14.83 8.17-.20090655.188469-.31032607.4547231-.3.73.01492224 1.5857139.1587292 3.1675905.43 4.73.07042291.3671629.34205596.663129.70184477.7647164.35978881.1015875.74610208-.0086056.99815523-.2847164 3.47250569-3.7991713 8.0641454-6.3944459 13.11-7.41.7451639-.1419881 1.4924814.2357768 1.82.92l.02.04c.2117922.4203339.2368434.91041.0690158 1.350149-.1678277.439739-.5130268.788508-.9510158.960851-5.5829744 1.8775349-10.45507244 5.4235762-13.958 10.159-.16432648.2243029-.22608356.507659-.17.78.48399118 2.4639476 1.38348079 4.8276439 2.66 6.99.21369873.3114387.58463848.4759002.95891868.4251503.37428021-.0507499.68803184-.3080508.81108132-.6651503 2.04605517-6.2754201 7.0073044-11.169575 13.31-13.13.8718948-.2680622 1.7976598.2126235 2.08 1.08l.01.04c.2721488.797746-.0753758 1.6750336-.82 2.07-5.487719 3.0246313-9.4666647 8.199435-10.98 14.28-.0773196.3226975.0086387.6627933.23.91 2.001199 2.4393879 4.6594189 4.2543344 7.66 5.23 3.7 1.23 5.51 1.84 7.24 3.959.1875101.226297.4661117.3572628.76.3572628s.5724899-.1309658.76-.3572628c1.73-2.119 3.54-2.729 7.24-3.959 3.0005811-.9756656 5.658801-2.7906121 7.66-5.23.2213613-.2472067.3073196-.5873025.23-.91-1.5133353-6.080565-5.492281-11.2553687-10.98-14.28-.7446242-.3949664-1.0921488-1.272254-.82-2.07l.01-.04c.2823402-.8673765 1.2081052-1.3480622 2.08-1.08 6.3026956 1.960425 11.2639448 6.8545799 13.31 13.13.1230495.3570995.4368011.6144004.8110813.6651503s.74522-.1137116.9589187-.4251503c1.2765192-2.1623561 2.1760088-4.5260524 2.66-6.99.0560836-.272341-.0056735-.5556971-.17-.78-3.5029276-4.7354238-8.3750256-8.2814651-13.958-10.159-.437989-.172343-.7831881-.521112-.9510158-.960851-.1678276-.439739-.1427764-.9298151.0690158-1.350149l.02-.04c.3275186-.6842232 1.0748361-1.0619881 1.82-.92 5.0458546 1.0155541 9.6374943 3.6108287 13.11 7.41.2520531.2761108.6383664.3863039.9981552.2847164.3597888-.1015874.6314219-.3975535.7018448-.7647164.2712708-1.5624095.4150778-3.1442861.43-4.73.0103261-.2752769-.0990934-.541531-.3-.73-4.2248126-3.8617904-9.3082807-6.6623254-14.83-8.17-1.0208148-.3396891-1.7253418-1.275078-1.77-2.35v-.01c.2519248-.7406434.9692999-1.2202598 1.75-1.17 4.9738722.3950735 9.7035856 2.3197944 13.54 5.51.2988206.2422924.7106227.290399 1.0572442.1235072s.5658178-.5188125.5627558-.9035072v-3.36c.0746698-7.03186249-5.3535392-12.89889194-12.37-13.37-5.1614317-.24577477-9.9783961 2.5886574-12.27 7.22-.2463874.51746396-.3696057 1.0849525-.36 1.658v13.112c0 .5522847-.4477153 1-1 1s-1-.4477153-1-1v-13.112c.0096057-.5730475-.1136126-1.14053604-.36-1.658-2.2916039-4.6313426-7.1085683-7.46577477-12.27-7.22-7.01646085.47110806-12.44466985 6.33813751-12.37 13.37v3.36c-.003062.3846947.21613427.7366154.56275579.9035072s.75842357.1187852 1.05724421-.1235072zm36.74-14.48c.986613-.07227051 1.9779062-.04882777 2.96.07.8679321.08853946 1.6535585.55272759 2.1498579 1.27024575s.653487 1.61639046.4301421 2.45975425c-.0652053.37052711-.3328556.67310187-.6926559.78303745-.3598003.10993557-.7508559.00862583-1.0120183-.2621809-.2611623-.27080674-.3482309-.66527756-.2253258-1.02085655.0729828-.28209337.0181199-.58201079-.15-.82-.1661533-.24110563-.4289368-.39804578-.72-.43-.8629302-.10188571-1.7337906-.11863303-2.6-.05-.5096482.02204347-.9346699.3970626-1.02.9-.0141667.17393914.0132551.34875287.08.51.1685227.38825957.5689173.6228342.99.58.5522847-.04970561 1.0402943.35771526 1.09.91.0497056.55228474-.3577153 1.04029436-.91 1.09-.09 0-.18.01-.27.01-1.1962459-.0003934-2.2758212-.71748359-2.74-1.82-.1948906-.4570219-.2738963-.95510157-.23-1.45.1607936-1.48917217 1.3746535-2.64381934 2.87-2.73zm-12.24 34.84c1.1659416 1.1673606 1.1704091 3.0571397.01 4.23-.3893607.3921222-1.0228778.3943607-1.415.005s-.3943607-1.0228778-.005-1.415c.3877236-.3900375.3877236-1.0199625 0-1.41-.4010198-.3700184-1.0189802-.3700184-1.42 0-1.4468441 1.5489643-2.5508541 3.3855734-3.24 5.39-.1767311.5246705.1053295 1.0932689.63 1.27s1.0932689-.1053295 1.27-.63c.1715258-.5243985.7353618-.8107915 1.26-.64.5265023.1750471.8125506.7426742.64 1.27-.4092576 1.2258866-1.5576045 2.0518905-2.85 2.05-.3225521-.0001427-.6430956-.0507549-.95-.15-1.5697904-.5295287-2.4182513-2.2264504-1.9-3.8.7941377-2.2967755 2.0653164-4.3995027 3.73-6.17 1.187403-1.130159 3.052597-1.130159 4.24 0z" transform="translate(-1 -1)"/></svg>