<svg id="svg" xmlns="http://www.w3.org/2000/svg" xmlns:xlink="http://www.w3.org/1999/xlink" width="400" height="400" viewBox="0, 0, 400,400"><g id="svgg"><path id="path0" d="M368.500 20.386 C 350.029 39.196,340.949 45.520,295.839 70.997 C 290.281 74.136,283.353 78.160,279.500 80.488 C 277.300 81.817,274.825 83.234,274.000 83.638 C 227.369 106.425,193.120 151.309,188.997 195.035 C 188.415 201.200,187.441 207.177,186.831 208.317 C 182.116 217.126,191.966 277.374,202.556 304.500 C 203.845 307.800,206.082 314.550,207.527 319.500 C 208.972 324.450,210.534 329.625,210.998 331.000 C 211.461 332.375,212.531 335.975,213.377 339.000 C 214.222 342.025,216.685 350.800,218.851 358.500 C 221.017 366.200,223.057 373.684,223.384 375.131 C 224.526 380.185,245.472 381.196,246.576 376.250 C 246.914 374.738,247.780 371.700,248.502 369.500 C 249.223 367.300,250.764 361.900,251.925 357.500 C 253.086 353.100,254.684 347.250,255.476 344.500 C 256.267 341.750,257.867 336.125,259.032 332.000 C 260.196 327.875,261.555 323.375,262.051 322.000 C 262.546 320.625,263.376 317.700,263.893 315.500 C 268.998 293.794,274.402 283.626,285.112 275.575 C 291.648 270.662,293.448 269.982,292.596 272.750 C 292.299 273.712,291.360 277.650,290.509 281.500 C 289.659 285.350,288.265 291.425,287.414 295.000 C 286.562 298.575,285.235 304.200,284.465 307.500 C 280.049 326.426,275.869 343.947,275.042 347.000 C 274.520 348.925,272.949 355.900,271.551 362.500 C 270.152 369.100,268.773 375.512,268.485 376.750 C 267.964 378.991,268.012 379.000,280.420 379.000 L 292.877 379.000 293.496 374.250 C 293.836 371.637,294.584 367.363,295.157 364.750 L 296.199 360.000 306.081 360.000 C 317.077 360.000,315.987 359.236,317.493 368.000 C 319.508 379.719,318.385 378.966,333.867 378.986 C 344.108 379.000,344.227 378.973,343.710 376.750 C 341.350 366.594,339.692 359.188,338.057 351.500 C 337.005 346.550,335.191 338.225,334.026 333.000 C 332.862 327.775,331.260 320.575,330.468 317.000 C 329.675 313.425,328.340 307.575,327.500 304.000 C 325.347 294.832,323.015 283.945,322.574 281.000 C 322.368 279.625,321.592 276.250,320.850 273.500 L 319.500 268.500 308.021 268.215 L 296.541 267.930 311.027 259.715 C 345.694 240.055,365.194 222.126,380.006 196.293 C 382.753 191.503,385.000 187.040,385.000 186.375 C 385.000 185.711,385.382 185.017,385.848 184.833 C 387.164 184.316,392.556 169.551,395.334 158.855 C 400.203 140.107,401.524 86.092,397.666 63.500 C 396.820 58.550,394.741 45.275,393.045 34.000 C 388.313 2.538,386.833 1.717,368.500 20.386 M172.000 48.537 C 160.545 49.920,146.558 52.777,138.000 55.484 C 86.123 71.887,61.563 76.763,43.212 74.302 C 37.033 73.473,30.090 78.882,33.005 82.253 C 33.598 82.939,41.123 92.950,49.728 104.500 C 73.082 135.849,95.478 157.569,115.500 168.286 C 137.958 180.308,150.871 184.000,170.458 184.000 C 185.590 184.000,185.077 184.264,186.955 175.500 C 190.674 158.138,201.510 137.651,214.461 123.500 C 222.980 114.190,222.533 113.574,206.500 112.533 C 201.550 112.212,194.826 111.667,191.558 111.323 L 185.617 110.698 191.058 109.302 C 196.796 107.831,221.489 107.894,225.603 109.391 C 227.274 109.999,228.903 109.108,233.546 105.045 C 239.016 100.258,256.574 88.284,268.070 81.500 C 283.520 72.383,283.646 72.891,263.500 63.118 C 237.877 50.687,201.808 44.940,172.000 48.537 M268.959 192.250 C 238.465 226.294,231.779 249.306,231.043 322.750 C 230.982 328.760,229.618 328.026,227.209 320.687 C 211.196 271.907,224.888 227.451,267.500 189.876 C 280.753 178.190,281.079 178.719,268.959 192.250 M0.000 278.500 L 0.000 289.000 8.000 289.000 L 16.000 289.000 16.000 334.000 L 16.000 379.000 28.500 379.000 L 41.000 379.000 41.000 334.000 L 41.000 289.000 49.500 289.000 L 58.000 289.000 58.000 278.500 L 58.000 268.000 29.000 268.000 L 0.000 268.000 0.000 278.500 M65.000 323.414 L 65.000 379.000 77.000 379.000 L 89.000 379.000 89.000 361.500 C 89.000 342.437,89.590 340.787,93.024 350.250 C 94.272 353.688,95.870 357.850,96.577 359.500 C 97.283 361.150,99.181 365.875,100.793 370.000 C 104.390 379.204,102.779 378.726,130.731 378.882 L 151.962 379.000 152.400 376.750 C 152.640 375.512,153.365 371.238,154.009 367.250 L 155.182 360.000 165.591 360.000 L 176.000 360.000 176.044 363.750 C 176.199 376.879,178.433 378.965,192.363 378.985 L 203.227 379.000 202.724 376.250 C 201.296 368.434,194.252 336.442,191.441 325.000 C 190.698 321.975,189.365 316.125,188.478 312.000 C 187.591 307.875,186.016 300.675,184.977 296.000 C 183.937 291.325,182.321 283.900,181.385 279.500 C 178.760 267.167,179.950 268.000,164.965 268.000 L 152.000 268.000 152.000 271.441 C 152.000 273.334,151.550 275.160,151.000 275.500 C 150.450 275.840,150.000 277.180,150.000 278.478 C 150.000 279.776,149.366 283.462,148.592 286.669 C 147.817 289.876,145.762 298.575,144.024 306.000 C 142.287 313.425,139.793 324.000,138.482 329.500 C 136.145 339.302,133.969 348.725,130.445 364.291 C 128.382 373.406,128.438 373.434,123.013 360.598 C 120.711 355.152,118.461 349.977,118.014 349.098 C 117.566 348.219,115.956 344.350,114.436 340.500 C 112.916 336.650,111.186 332.872,110.592 332.103 C 109.753 331.018,110.282 330.126,112.962 328.103 C 124.083 319.713,126.426 313.978,125.819 296.635 C 125.398 284.613,124.885 283.110,119.001 276.665 C 112.052 269.054,110.168 268.566,86.250 268.175 L 65.000 267.828 65.000 323.414 M99.651 289.380 C 106.663 297.532,102.477 312.750,92.612 314.975 L 89.000 315.789 89.000 300.763 L 89.000 285.737 93.248 286.306 C 96.061 286.684,98.225 287.723,99.651 289.380 M169.228 331.250 L 170.605 340.000 165.197 340.000 L 159.790 340.000 160.284 336.250 C 160.902 331.561,162.631 320.667,164.213 311.500 L 165.422 304.500 166.636 313.500 C 167.304 318.450,168.470 326.438,169.228 331.250 M309.037 324.375 C 311.785 340.998,312.000 340.000,305.659 340.000 L 300.317 340.000 301.162 335.250 C 301.627 332.637,302.655 325.991,303.447 320.480 C 305.130 308.765,306.337 304.798,306.787 309.500 C 306.945 311.150,307.958 317.844,309.037 324.375 " stroke="none" fill="#005247" fill-rule="evenodd"></path></g></svg>