<svg  fill="#FFCC73" height="512pt" viewBox="-54 0 512 512.001" width="512pt" xmlns="http://www.w3.org/2000/svg"><path d="m400.550781 76.945312c-2.691406-2.335937-6.421875-3.0625-9.796875-1.90625-25.128906 8.621094-48.863281 20.425782-70.699218 34.957032 7.1875-18.554688 10.945312-38.46875 10.945312-58.964844v-8.03125c0-3.304688-1.632812-6.398438-4.363281-8.261719-2.730469-1.859375-6.203125-2.253906-9.28125-1.050781-27.058594 10.597656-51.246094 26.695312-71.277344 46.832031-4.359375-27.15625-16.042969-52.832031-33.964844-74.042969l-2.476562-2.929687c-1.898438-2.25-4.691407-3.546875-7.636719-3.546875s-5.738281 1.296875-7.636719 3.546875l-2.476562 2.929687c-17.921875 21.207032-29.597657 46.878907-33.960938 74.03125-20.03125-20.136718-44.210937-36.226562-71.261719-46.820312-3.078124-1.203125-6.550781-.808594-9.285156 1.050781-2.726562 1.863281-4.363281 4.957031-4.363281 8.261719v8.03125c0 20.5 3.761719 40.421875 10.953125 58.980469-21.84375-14.542969-45.585938-26.347657-70.722656-34.972657-3.371094-1.15625-7.105469-.429687-9.796875 1.90625-2.695313 2.335938-3.9375 5.929688-3.273438 9.429688l4.523438 23.695312c8.398437 44.011719 31.40625 84.230469 64.515625 113.929688h-47.214844c-5.523438 0-10 4.476562-10 10v44c0 5.523438 4.476562 10 10 10h7.40625l45.980469 216.082031c.980469 4.617188 5.058593 7.917969 9.78125 7.917969h233.667969c4.71875 0 8.796874-3.300781 9.78125-7.917969l45.980468-216.082031h7.402344c5.523438 0 10-4.476562 10-10v-44c0-5.523438-4.476562-10-10-10h-47.214844c33.113282-29.703125 56.117188-69.917969 64.515625-113.929688l4.523438-23.695312c.667969-3.5-.578125-7.09375-3.273438-9.429688zm-198.550781-51.042968c16.191406 21.820312 25.277344 48.230468 25.9375 75.46875-10.414062 13.6875-19.15625 28.679687-25.929688 44.664062-6.78125-15.996094-15.527343-30.988281-25.941406-44.679687.660156-27.230469 9.746094-53.636719 25.933594-75.453125zm-9.679688 153.546875c1.144532 4.527343 5.207032 7.539062 9.675782 7.539062.804687 0 1.625-.097656 2.441406-.300781 3.699219-.925781 6.394531-3.8125 7.269531-7.273438 13.816407-52.914062 50.355469-97.199218 99.109375-121.027343-1.785156 35.445312-16.4375 68.515625-41.710937 93.792969-.523438.523437-.972657 1.09375-1.355469 1.691406-15.863281 16.617187-29.921875 35.054687-41.816406 55.03125l-8.988282 15.097656h-29.886718l-8.988282-15.097656c-11.886718-19.964844-25.933593-38.382813-41.777343-54.992188-.386719-.613281-.84375-1.195312-1.378907-1.730468-25.277343-25.277344-39.929687-58.351563-41.710937-93.792969 48.761719 23.832031 85.308594 68.132812 99.117187 121.0625zm-167.976562-73.128907-1.175781-6.167968c57.359375 23.675781 105.828125 65.417968 137.714843 118.980468l2.898438 4.867188h-62.214844c-40.042968-27.304688-68.125-70.023438-77.222656-117.679688zm347.65625 161.679688h-5.402344c-.023437 0-.046875 0-.070312 0h-119.398438c-5.523437 0-10 4.476562-10 10s4.476563 10 10 10h107.019532l-43.410157 204h-217.476562l-43.410157-204h107.277344c5.523438 0 10-4.476562 10-10s-4.476562-10-10-10h-119.652344c-.023437 0-.050781 0-.074218 0h-5.402344v-24h66.597656.023438 82.738281.023437.023438 41.1875.023438.023437 82.738281.03125 66.589844zm7.65625-161.679688c-9.09375 47.65625-37.175781 90.375-77.21875 117.679688h-62.21875l2.898438-4.867188c31.886718-53.558593 80.355468-95.300781 137.714843-118.976562zm0 0"/><path d="m202.128906 268c-2.628906 0-5.207031 1.070312-7.066406 2.929688-1.871094 1.859374-2.933594 4.441406-2.933594 7.070312s1.0625 5.210938 2.933594 7.070312c1.859375 1.859376 4.4375 2.929688 7.066406 2.929688 2.632813 0 5.210938-1.070312 7.070313-2.929688 1.863281-1.859374 2.929687-4.441406 2.929687-7.070312s-1.066406-5.210938-2.929687-7.070312c-1.859375-1.859376-4.4375-2.929688-7.070313-2.929688zm0 0"/></svg>